# MagicaVoxel @ Ephtracy

# group
g M_DoubleBladeAxe

# material
mtllib M_DoubleBladeAxe.mtl
usemtl palette

# normals
vn -1 0 0
vn 1 0 0
vn 0 0 1
vn 0 0 -1
vn 0 -1 0
vn 0 1 0

# texcoords
vt 0.845703 0.5
vt 0.876953 0.5
vt 0.880859 0.5
vt 0.908203 0.5
vt 0.955078 0.5
vt 0.970703 0.5
vt 0.974609 0.5
vt 0.990234 0.5

# verts
v -5.5 11 0.5
v -5.5 11 -0.5
v -5.5 12 0.5
v -5.5 12 -0.5
v -5.5 14 0.5
v -5.5 14 -0.5
v -5.5 15 0.5
v -5.5 15 -0.5
v -4.5 10 0.5
v -4.5 10 -0.5
v -4.5 11 0.5
v -4.5 11 -0.5
v -4.5 15 0.5
v -4.5 15 -0.5
v -4.5 16 0.5
v -4.5 16 -0.5
v -3.5 9 0.5
v -3.5 9 -0.5
v -3.5 10 0.5
v -3.5 10 -0.5
v -3.5 16 0.5
v -3.5 16 -0.5
v -3.5 17 0.5
v -3.5 17 -0.5
v -2.5 8 0.5
v -2.5 8 -0.5
v -2.5 9 0.5
v -2.5 9 -0.5
v -2.5 17 0.5
v -2.5 17 -0.5
v -2.5 18 0.5
v -2.5 18 -0.5
v -1.5 1 0.5
v -1.5 1 -0.5
v -1.5 2 0.5
v -1.5 2 -0.5
v -0.5 0 0.5
v -0.5 0 -0.5
v -0.5 1 0.5
v -0.5 1 -0.5
v -0.5 2 0.5
v -0.5 2 -0.5
v -0.5 4 0.5
v -0.5 4 -0.5
v -0.5 8 0.5
v -0.5 8 -0.5
v -0.5 10 0.5
v -0.5 10 -0.5
v -0.5 11 0.5
v -0.5 11 -0.5
v -0.5 14 0.5
v -0.5 14 -0.5
v -0.5 15 0.5
v -0.5 15 -0.5
v -0.5 16 0.5
v -0.5 16 -0.5
v 1.5 8 0.5
v 1.5 8 -0.5
v 1.5 9 0.5
v 1.5 9 -0.5
v 1.5 10 0.5
v 1.5 10 -0.5
v 1.5 11 0.5
v 1.5 11 -0.5
v 1.5 14 0.5
v 1.5 14 -0.5
v 1.5 15 0.5
v 1.5 15 -0.5
v 1.5 17 0.5
v 1.5 17 -0.5
v 1.5 18 0.5
v 1.5 18 -0.5
v -1.5 8 0.5
v -1.5 8 -0.5
v -1.5 9 0.5
v -1.5 9 -0.5
v -1.5 10 0.5
v -1.5 10 -0.5
v -1.5 11 0.5
v -1.5 11 -0.5
v -1.5 14 0.5
v -1.5 14 -0.5
v -1.5 15 0.5
v -1.5 15 -0.5
v -1.5 17 0.5
v -1.5 17 -0.5
v -1.5 18 0.5
v -1.5 18 -0.5
v 0.5 0 0.5
v 0.5 0 -0.5
v 0.5 1 0.5
v 0.5 1 -0.5
v 0.5 2 0.5
v 0.5 2 -0.5
v 0.5 4 0.5
v 0.5 4 -0.5
v 0.5 8 0.5
v 0.5 8 -0.5
v 0.5 10 0.5
v 0.5 10 -0.5
v 0.5 11 0.5
v 0.5 11 -0.5
v 0.5 14 0.5
v 0.5 14 -0.5
v 0.5 15 0.5
v 0.5 15 -0.5
v 0.5 16 0.5
v 0.5 16 -0.5
v 1.5 1 0.5
v 1.5 1 -0.5
v 1.5 2 0.5
v 1.5 2 -0.5
v 2.5 8 0.5
v 2.5 8 -0.5
v 2.5 9 0.5
v 2.5 9 -0.5
v 2.5 17 0.5
v 2.5 17 -0.5
v 2.5 18 0.5
v 2.5 18 -0.5
v 3.5 9 0.5
v 3.5 9 -0.5
v 3.5 10 0.5
v 3.5 10 -0.5
v 3.5 16 0.5
v 3.5 16 -0.5
v 3.5 17 0.5
v 3.5 17 -0.5
v 4.5 10 0.5
v 4.5 10 -0.5
v 4.5 11 0.5
v 4.5 11 -0.5
v 4.5 15 0.5
v 4.5 15 -0.5
v 4.5 16 0.5
v 4.5 16 -0.5
v 5.5 11 0.5
v 5.5 11 -0.5
v 5.5 12 0.5
v 5.5 12 -0.5
v 5.5 14 0.5
v 5.5 14 -0.5
v 5.5 15 0.5
v 5.5 15 -0.5
v -5.5 11 0.5
v -5.5 12 0.5
v -5.5 14 0.5
v -5.5 15 0.5
v -4.5 10 0.5
v -4.5 11 0.5
v -4.5 12 0.5
v -4.5 13 0.5
v -4.5 14 0.5
v -4.5 15 0.5
v -4.5 16 0.5
v -3.5 9 0.5
v -3.5 10 0.5
v -3.5 11 0.5
v -3.5 12 0.5
v -3.5 13 0.5
v -3.5 14 0.5
v -3.5 15 0.5
v -3.5 16 0.5
v -3.5 17 0.5
v -2.5 8 0.5
v -2.5 9 0.5
v -2.5 10 0.5
v -2.5 11 0.5
v -2.5 12 0.5
v -2.5 13 0.5
v -2.5 14 0.5
v -2.5 15 0.5
v -2.5 16 0.5
v -2.5 17 0.5
v -2.5 18 0.5
v -1.5 1 0.5
v -1.5 2 0.5
v -1.5 8 0.5
v -1.5 9 0.5
v -1.5 10 0.5
v -1.5 11 0.5
v -1.5 12 0.5
v -1.5 13 0.5
v -1.5 14 0.5
v -1.5 15 0.5
v -1.5 17 0.5
v -1.5 18 0.5
v -0.5 0 0.5
v -0.5 1 0.5
v -0.5 2 0.5
v -0.5 4 0.5
v -0.5 8 0.5
v -0.5 10 0.5
v -0.5 11 0.5
v -0.5 12 0.5
v -0.5 13 0.5
v -0.5 14 0.5
v -0.5 15 0.5
v -0.5 16 0.5
v 0.5 0 0.5
v 0.5 1 0.5
v 0.5 2 0.5
v 0.5 4 0.5
v 0.5 8 0.5
v 0.5 10 0.5
v 0.5 11 0.5
v 0.5 12 0.5
v 0.5 13 0.5
v 0.5 14 0.5
v 0.5 15 0.5
v 0.5 16 0.5
v 1.5 1 0.5
v 1.5 2 0.5
v 1.5 8 0.5
v 1.5 9 0.5
v 1.5 10 0.5
v 1.5 11 0.5
v 1.5 12 0.5
v 1.5 13 0.5
v 1.5 14 0.5
v 1.5 15 0.5
v 1.5 17 0.5
v 1.5 18 0.5
v 2.5 8 0.5
v 2.5 9 0.5
v 2.5 10 0.5
v 2.5 11 0.5
v 2.5 12 0.5
v 2.5 13 0.5
v 2.5 14 0.5
v 2.5 15 0.5
v 2.5 16 0.5
v 2.5 17 0.5
v 2.5 18 0.5
v 3.5 9 0.5
v 3.5 10 0.5
v 3.5 11 0.5
v 3.5 12 0.5
v 3.5 13 0.5
v 3.5 14 0.5
v 3.5 15 0.5
v 3.5 16 0.5
v 3.5 17 0.5
v 4.5 10 0.5
v 4.5 11 0.5
v 4.5 12 0.5
v 4.5 13 0.5
v 4.5 14 0.5
v 4.5 15 0.5
v 4.5 16 0.5
v 5.5 11 0.5
v 5.5 12 0.5
v 5.5 14 0.5
v 5.5 15 0.5
v -5.5 11 -0.5
v -5.5 12 -0.5
v -5.5 14 -0.5
v -5.5 15 -0.5
v -4.5 10 -0.5
v -4.5 11 -0.5
v -4.5 12 -0.5
v -4.5 13 -0.5
v -4.5 14 -0.5
v -4.5 15 -0.5
v -4.5 16 -0.5
v -3.5 9 -0.5
v -3.5 10 -0.5
v -3.5 11 -0.5
v -3.5 12 -0.5
v -3.5 13 -0.5
v -3.5 14 -0.5
v -3.5 15 -0.5
v -3.5 16 -0.5
v -3.5 17 -0.5
v -2.5 8 -0.5
v -2.5 9 -0.5
v -2.5 10 -0.5
v -2.5 11 -0.5
v -2.5 12 -0.5
v -2.5 13 -0.5
v -2.5 14 -0.5
v -2.5 15 -0.5
v -2.5 16 -0.5
v -2.5 17 -0.5
v -2.5 18 -0.5
v -1.5 1 -0.5
v -1.5 2 -0.5
v -1.5 8 -0.5
v -1.5 9 -0.5
v -1.5 10 -0.5
v -1.5 11 -0.5
v -1.5 12 -0.5
v -1.5 13 -0.5
v -1.5 14 -0.5
v -1.5 15 -0.5
v -1.5 17 -0.5
v -1.5 18 -0.5
v -0.5 0 -0.5
v -0.5 1 -0.5
v -0.5 2 -0.5
v -0.5 4 -0.5
v -0.5 8 -0.5
v -0.5 10 -0.5
v -0.5 11 -0.5
v -0.5 12 -0.5
v -0.5 13 -0.5
v -0.5 14 -0.5
v -0.5 15 -0.5
v -0.5 16 -0.5
v 0.5 0 -0.5
v 0.5 1 -0.5
v 0.5 2 -0.5
v 0.5 4 -0.5
v 0.5 8 -0.5
v 0.5 10 -0.5
v 0.5 11 -0.5
v 0.5 12 -0.5
v 0.5 13 -0.5
v 0.5 14 -0.5
v 0.5 15 -0.5
v 0.5 16 -0.5
v 1.5 1 -0.5
v 1.5 2 -0.5
v 1.5 8 -0.5
v 1.5 9 -0.5
v 1.5 10 -0.5
v 1.5 11 -0.5
v 1.5 12 -0.5
v 1.5 13 -0.5
v 1.5 14 -0.5
v 1.5 15 -0.5
v 1.5 17 -0.5
v 1.5 18 -0.5
v 2.5 8 -0.5
v 2.5 9 -0.5
v 2.5 10 -0.5
v 2.5 11 -0.5
v 2.5 12 -0.5
v 2.5 13 -0.5
v 2.5 14 -0.5
v 2.5 15 -0.5
v 2.5 16 -0.5
v 2.5 17 -0.5
v 2.5 18 -0.5
v 3.5 9 -0.5
v 3.5 10 -0.5
v 3.5 11 -0.5
v 3.5 12 -0.5
v 3.5 13 -0.5
v 3.5 14 -0.5
v 3.5 15 -0.5
v 3.5 16 -0.5
v 3.5 17 -0.5
v 4.5 10 -0.5
v 4.5 11 -0.5
v 4.5 12 -0.5
v 4.5 13 -0.5
v 4.5 14 -0.5
v 4.5 15 -0.5
v 4.5 16 -0.5
v 5.5 11 -0.5
v 5.5 12 -0.5
v 5.5 14 -0.5
v 5.5 15 -0.5
v -0.5 0 0.5
v 0.5 0 0.5
v -0.5 0 -0.5
v 0.5 0 -0.5
v -1.5 1 0.5
v -0.5 1 0.5
v 0.5 1 0.5
v 1.5 1 0.5
v -1.5 1 -0.5
v -0.5 1 -0.5
v 0.5 1 -0.5
v 1.5 1 -0.5
v -2.5 8 0.5
v -1.5 8 0.5
v 1.5 8 0.5
v 2.5 8 0.5
v -2.5 8 -0.5
v -1.5 8 -0.5
v 1.5 8 -0.5
v 2.5 8 -0.5
v -3.5 9 0.5
v -2.5 9 0.5
v 2.5 9 0.5
v 3.5 9 0.5
v -3.5 9 -0.5
v -2.5 9 -0.5
v 2.5 9 -0.5
v 3.5 9 -0.5
v -4.5 10 0.5
v -3.5 10 0.5
v 3.5 10 0.5
v 4.5 10 0.5
v -4.5 10 -0.5
v -3.5 10 -0.5
v 3.5 10 -0.5
v 4.5 10 -0.5
v -5.5 11 0.5
v -4.5 11 0.5
v -1.5 11 0.5
v -0.5 11 0.5
v 0.5 11 0.5
v 1.5 11 0.5
v 4.5 11 0.5
v 5.5 11 0.5
v -5.5 11 -0.5
v -4.5 11 -0.5
v -1.5 11 -0.5
v -0.5 11 -0.5
v 0.5 11 -0.5
v 1.5 11 -0.5
v 4.5 11 -0.5
v 5.5 11 -0.5
v -1.5 2 0.5
v -0.5 2 0.5
v 0.5 2 0.5
v 1.5 2 0.5
v -1.5 2 -0.5
v -0.5 2 -0.5
v 0.5 2 -0.5
v 1.5 2 -0.5
v -1.5 14 0.5
v -0.5 14 0.5
v 0.5 14 0.5
v 1.5 14 0.5
v -1.5 14 -0.5
v -0.5 14 -0.5
v 0.5 14 -0.5
v 1.5 14 -0.5
v -5.5 15 0.5
v -4.5 15 0.5
v 4.5 15 0.5
v 5.5 15 0.5
v -5.5 15 -0.5
v -4.5 15 -0.5
v 4.5 15 -0.5
v 5.5 15 -0.5
v -4.5 16 0.5
v -3.5 16 0.5
v -0.5 16 0.5
v 0.5 16 0.5
v 3.5 16 0.5
v 4.5 16 0.5
v -4.5 16 -0.5
v -3.5 16 -0.5
v -0.5 16 -0.5
v 0.5 16 -0.5
v 3.5 16 -0.5
v 4.5 16 -0.5
v -3.5 17 0.5
v -2.5 17 0.5
v 2.5 17 0.5
v 3.5 17 0.5
v -3.5 17 -0.5
v -2.5 17 -0.5
v 2.5 17 -0.5
v 3.5 17 -0.5
v -2.5 18 0.5
v -1.5 18 0.5
v 1.5 18 0.5
v 2.5 18 0.5
v -2.5 18 -0.5
v -1.5 18 -0.5
v 1.5 18 -0.5
v 2.5 18 -0.5

# faces
f 3/2/1 2/2/1 1/2/1
f 4/2/1 2/2/1 3/2/1
f 5/3/1 4/3/1 3/3/1
f 6/3/1 4/3/1 5/3/1
f 7/2/1 6/2/1 5/2/1
f 8/2/1 6/2/1 7/2/1
f 11/2/1 10/2/1 9/2/1
f 12/2/1 10/2/1 11/2/1
f 15/2/1 14/2/1 13/2/1
f 16/2/1 14/2/1 15/2/1
f 19/2/1 18/2/1 17/2/1
f 20/2/1 18/2/1 19/2/1
f 23/2/1 22/2/1 21/2/1
f 24/2/1 22/2/1 23/2/1
f 27/2/1 26/2/1 25/2/1
f 28/2/1 26/2/1 27/2/1
f 31/2/1 30/2/1 29/2/1
f 32/2/1 30/2/1 31/2/1
f 35/1/1 34/1/1 33/1/1
f 36/1/1 34/1/1 35/1/1
f 39/8/1 38/8/1 37/8/1
f 40/8/1 38/8/1 39/8/1
f 43/7/1 42/7/1 41/7/1
f 44/7/1 42/7/1 43/7/1
f 45/1/1 44/1/1 43/1/1
f 46/1/1 44/1/1 45/1/1
f 47/6/1 46/6/1 45/6/1
f 48/6/1 46/6/1 47/6/1
f 49/7/1 48/7/1 47/7/1
f 50/7/1 48/7/1 49/7/1
f 53/7/1 52/7/1 51/7/1
f 54/7/1 52/7/1 53/7/1
f 55/1/1 54/1/1 53/1/1
f 56/1/1 54/1/1 55/1/1
f 59/2/1 58/2/1 57/2/1
f 60/2/1 58/2/1 59/2/1
f 61/3/1 60/3/1 59/3/1
f 62/3/1 60/3/1 61/3/1
f 63/5/1 62/5/1 61/5/1
f 64/5/1 62/5/1 63/5/1
f 67/5/1 66/5/1 65/5/1
f 68/5/1 66/5/1 67/5/1
f 69/3/1 68/3/1 67/3/1
f 70/3/1 68/3/1 69/3/1
f 71/2/1 70/2/1 69/2/1
f 72/2/1 70/2/1 71/2/1
f 73/2/2 74/2/2 75/2/2
f 75/2/2 74/2/2 76/2/2
f 75/3/2 76/3/2 77/3/2
f 77/3/2 76/3/2 78/3/2
f 77/5/2 78/5/2 79/5/2
f 79/5/2 78/5/2 80/5/2
f 81/5/2 82/5/2 83/5/2
f 83/5/2 82/5/2 84/5/2
f 83/3/2 84/3/2 85/3/2
f 85/3/2 84/3/2 86/3/2
f 85/2/2 86/2/2 87/2/2
f 87/2/2 86/2/2 88/2/2
f 89/8/2 90/8/2 91/8/2
f 91/8/2 90/8/2 92/8/2
f 93/7/2 94/7/2 95/7/2
f 95/7/2 94/7/2 96/7/2
f 95/1/2 96/1/2 97/1/2
f 97/1/2 96/1/2 98/1/2
f 97/6/2 98/6/2 99/6/2
f 99/6/2 98/6/2 100/6/2
f 99/7/2 100/7/2 101/7/2
f 101/7/2 100/7/2 102/7/2
f 103/7/2 104/7/2 105/7/2
f 105/7/2 104/7/2 106/7/2
f 105/1/2 106/1/2 107/1/2
f 107/1/2 106/1/2 108/1/2
f 109/1/2 110/1/2 111/1/2
f 111/1/2 110/1/2 112/1/2
f 113/2/2 114/2/2 115/2/2
f 115/2/2 114/2/2 116/2/2
f 117/2/2 118/2/2 119/2/2
f 119/2/2 118/2/2 120/2/2
f 121/2/2 122/2/2 123/2/2
f 123/2/2 122/2/2 124/2/2
f 125/2/2 126/2/2 127/2/2
f 127/2/2 126/2/2 128/2/2
f 129/2/2 130/2/2 131/2/2
f 131/2/2 130/2/2 132/2/2
f 133/2/2 134/2/2 135/2/2
f 135/2/2 134/2/2 136/2/2
f 137/2/2 138/2/2 139/2/2
f 139/2/2 138/2/2 140/2/2
f 139/3/2 140/3/2 141/3/2
f 141/3/2 140/3/2 142/3/2
f 141/2/2 142/2/2 143/2/2
f 143/2/2 142/2/2 144/2/2
f 150/2/3 146/2/3 145/2/3
f 151/3/3 147/3/3 146/3/3
f 151/2/3 146/2/3 150/2/3
f 152/3/3 147/3/3 151/3/3
f 153/2/3 148/2/3 147/2/3
f 153/3/3 147/3/3 152/3/3
f 154/2/3 148/2/3 153/2/3
f 157/2/3 150/2/3 149/2/3
f 158/3/3 151/3/3 150/3/3
f 158/2/3 150/2/3 157/2/3
f 159/1/3 152/1/3 151/1/3
f 159/3/3 151/3/3 158/3/3
f 160/3/3 153/3/3 152/3/3
f 160/1/3 152/1/3 159/1/3
f 160/3/3 154/3/3 153/3/3
f 161/3/3 154/3/3 160/3/3
f 162/2/3 155/2/3 154/2/3
f 162/3/3 154/3/3 161/3/3
f 163/2/3 155/2/3 162/2/3
f 166/2/3 157/2/3 156/2/3
f 167/3/3 158/3/3 157/3/3
f 167/2/3 157/2/3 166/2/3
f 168/1/3 159/1/3 158/1/3
f 168/3/3 158/3/3 167/3/3
f 169/6/3 160/6/3 159/6/3
f 169/1/3 159/1/3 168/1/3
f 170/1/3 161/1/3 160/1/3
f 170/6/3 160/6/3 169/6/3
f 171/3/3 162/3/3 161/3/3
f 171/1/3 161/1/3 170/1/3
f 171/3/3 163/3/3 162/3/3
f 172/3/3 163/3/3 171/3/3
f 173/2/3 164/2/3 163/2/3
f 173/3/3 163/3/3 172/3/3
f 174/2/3 164/2/3 173/2/3
f 178/2/3 166/2/3 165/2/3
f 179/3/3 167/3/3 166/3/3
f 179/2/3 166/2/3 178/2/3
f 180/5/3 168/5/3 167/5/3
f 180/3/3 167/3/3 179/3/3
f 181/6/3 169/6/3 168/6/3
f 181/5/3 168/5/3 180/5/3
f 182/7/3 170/7/3 169/7/3
f 182/6/3 169/6/3 181/6/3
f 183/6/3 171/6/3 170/6/3
f 183/7/3 170/7/3 182/7/3
f 184/5/3 172/5/3 171/5/3
f 184/6/3 171/6/3 183/6/3
f 185/3/3 173/3/3 172/3/3
f 185/5/3 172/5/3 184/5/3
f 185/3/3 174/3/3 173/3/3
f 186/2/3 175/2/3 174/2/3
f 186/3/3 174/3/3 185/3/3
f 187/2/3 175/2/3 186/2/3
f 189/1/3 177/1/3 176/1/3
f 190/1/3 177/1/3 189/1/3
f 194/7/3 182/7/3 181/7/3
f 195/4/3 183/4/3 182/4/3
f 195/7/3 182/7/3 194/7/3
f 196/7/3 184/7/3 183/7/3
f 196/4/3 183/4/3 195/4/3
f 197/7/3 184/7/3 196/7/3
f 200/8/3 189/8/3 188/8/3
f 201/1/3 190/1/3 189/1/3
f 201/8/3 189/8/3 200/8/3
f 202/7/3 191/7/3 190/7/3
f 202/1/3 190/1/3 201/1/3
f 203/1/3 192/1/3 191/1/3
f 203/7/3 191/7/3 202/7/3
f 204/6/3 193/6/3 192/6/3
f 204/1/3 192/1/3 203/1/3
f 205/7/3 194/7/3 193/7/3
f 205/6/3 193/6/3 204/6/3
f 206/4/3 195/4/3 194/4/3
f 206/7/3 194/7/3 205/7/3
f 206/4/3 196/4/3 195/4/3
f 206/4/3 197/4/3 196/4/3
f 207/4/3 197/4/3 206/4/3
f 208/4/3 197/4/3 207/4/3
f 209/7/3 198/7/3 197/7/3
f 209/4/3 197/4/3 208/4/3
f 210/1/3 199/1/3 198/1/3
f 210/7/3 198/7/3 209/7/3
f 211/1/3 199/1/3 210/1/3
f 212/1/3 202/1/3 201/1/3
f 213/1/3 202/1/3 212/1/3
f 217/7/3 207/7/3 206/7/3
f 218/4/3 208/4/3 207/4/3
f 218/7/3 207/7/3 217/7/3
f 219/7/3 209/7/3 208/7/3
f 219/4/3 208/4/3 218/4/3
f 220/7/3 209/7/3 219/7/3
f 224/2/3 215/2/3 214/2/3
f 225/3/3 216/3/3 215/3/3
f 225/2/3 215/2/3 224/2/3
f 226/5/3 217/5/3 216/5/3
f 226/3/3 216/3/3 225/3/3
f 227/6/3 218/6/3 217/6/3
f 227/5/3 217/5/3 226/5/3
f 228/7/3 219/7/3 218/7/3
f 228/6/3 218/6/3 227/6/3
f 229/6/3 220/6/3 219/6/3
f 229/7/3 219/7/3 228/7/3
f 230/5/3 221/5/3 220/5/3
f 230/6/3 220/6/3 229/6/3
f 231/3/3 222/3/3 221/3/3
f 231/5/3 221/5/3 230/5/3
f 232/3/3 222/3/3 231/3/3
f 233/2/3 223/2/3 222/2/3
f 233/3/3 222/3/3 232/3/3
f 234/2/3 223/2/3 233/2/3
f 235/2/3 226/2/3 225/2/3
f 236/3/3 227/3/3 226/3/3
f 236/2/3 226/2/3 235/2/3
f 237/1/3 228/1/3 227/1/3
f 237/3/3 227/3/3 236/3/3
f 238/6/3 229/6/3 228/6/3
f 238/1/3 228/1/3 237/1/3
f 239/1/3 230/1/3 229/1/3
f 239/6/3 229/6/3 238/6/3
f 240/3/3 232/3/3 231/3/3
f 240/1/3 230/1/3 239/1/3
f 240/3/3 231/3/3 230/3/3
f 241/3/3 232/3/3 240/3/3
f 242/2/3 233/2/3 232/2/3
f 242/3/3 232/3/3 241/3/3
f 243/2/3 233/2/3 242/2/3
f 244/2/3 237/2/3 236/2/3
f 245/3/3 238/3/3 237/3/3
f 245/2/3 237/2/3 244/2/3
f 246/1/3 239/1/3 238/1/3
f 246/3/3 238/3/3 245/3/3
f 247/3/3 241/3/3 240/3/3
f 247/1/3 239/1/3 246/1/3
f 247/3/3 240/3/3 239/3/3
f 248/3/3 241/3/3 247/3/3
f 249/2/3 242/2/3 241/2/3
f 249/3/3 241/3/3 248/3/3
f 250/2/3 242/2/3 249/2/3
f 251/2/3 246/2/3 245/2/3
f 252/3/3 248/3/3 247/3/3
f 252/2/3 246/2/3 251/2/3
f 252/3/3 247/3/3 246/3/3
f 253/2/3 249/2/3 248/2/3
f 253/3/3 248/3/3 252/3/3
f 254/2/3 249/2/3 253/2/3
f 255/2/4 256/2/4 260/2/4
f 256/3/4 257/3/4 261/3/4
f 260/2/4 256/2/4 261/2/4
f 261/3/4 257/3/4 262/3/4
f 257/2/4 258/2/4 263/2/4
f 262/3/4 257/3/4 263/3/4
f 263/2/4 258/2/4 264/2/4
f 259/2/4 260/2/4 267/2/4
f 260/3/4 261/3/4 268/3/4
f 267/2/4 260/2/4 268/2/4
f 261/1/4 262/1/4 269/1/4
f 268/3/4 261/3/4 269/3/4
f 262/3/4 263/3/4 270/3/4
f 269/1/4 262/1/4 270/1/4
f 263/3/4 264/3/4 270/3/4
f 270/3/4 264/3/4 271/3/4
f 264/2/4 265/2/4 272/2/4
f 271/3/4 264/3/4 272/3/4
f 272/2/4 265/2/4 273/2/4
f 266/2/4 267/2/4 276/2/4
f 267/3/4 268/3/4 277/3/4
f 276/2/4 267/2/4 277/2/4
f 268/1/4 269/1/4 278/1/4
f 277/3/4 268/3/4 278/3/4
f 269/6/4 270/6/4 279/6/4
f 278/1/4 269/1/4 279/1/4
f 270/1/4 271/1/4 280/1/4
f 279/6/4 270/6/4 280/6/4
f 271/3/4 272/3/4 281/3/4
f 280/1/4 271/1/4 281/1/4
f 272/3/4 273/3/4 281/3/4
f 281/3/4 273/3/4 282/3/4
f 273/2/4 274/2/4 283/2/4
f 282/3/4 273/3/4 283/3/4
f 283/2/4 274/2/4 284/2/4
f 275/2/4 276/2/4 288/2/4
f 276/3/4 277/3/4 289/3/4
f 288/2/4 276/2/4 289/2/4
f 277/5/4 278/5/4 290/5/4
f 289/3/4 277/3/4 290/3/4
f 278/6/4 279/6/4 291/6/4
f 290/5/4 278/5/4 291/5/4
f 279/7/4 280/7/4 292/7/4
f 291/6/4 279/6/4 292/6/4
f 280/6/4 281/6/4 293/6/4
f 292/7/4 280/7/4 293/7/4
f 281/5/4 282/5/4 294/5/4
f 293/6/4 281/6/4 294/6/4
f 282/3/4 283/3/4 295/3/4
f 294/5/4 282/5/4 295/5/4
f 283/3/4 284/3/4 295/3/4
f 284/2/4 285/2/4 296/2/4
f 295/3/4 284/3/4 296/3/4
f 296/2/4 285/2/4 297/2/4
f 286/1/4 287/1/4 299/1/4
f 299/1/4 287/1/4 300/1/4
f 291/7/4 292/7/4 304/7/4
f 292/4/4 293/4/4 305/4/4
f 304/7/4 292/7/4 305/7/4
f 293/7/4 294/7/4 306/7/4
f 305/4/4 293/4/4 306/4/4
f 306/7/4 294/7/4 307/7/4
f 298/8/4 299/8/4 310/8/4
f 299/1/4 300/1/4 311/1/4
f 310/8/4 299/8/4 311/8/4
f 300/7/4 301/7/4 312/7/4
f 311/1/4 300/1/4 312/1/4
f 301/1/4 302/1/4 313/1/4
f 312/7/4 301/7/4 313/7/4
f 302/6/4 303/6/4 314/6/4
f 313/1/4 302/1/4 314/1/4
f 303/7/4 304/7/4 315/7/4
f 314/6/4 303/6/4 315/6/4
f 304/4/4 305/4/4 316/4/4
f 315/7/4 304/7/4 316/7/4
f 305/4/4 306/4/4 316/4/4
f 306/4/4 307/4/4 316/4/4
f 316/4/4 307/4/4 317/4/4
f 317/4/4 307/4/4 318/4/4
f 307/7/4 308/7/4 319/7/4
f 318/4/4 307/4/4 319/4/4
f 308/1/4 309/1/4 320/1/4
f 319/7/4 308/7/4 320/7/4
f 320/1/4 309/1/4 321/1/4
f 311/1/4 312/1/4 322/1/4
f 322/1/4 312/1/4 323/1/4
f 316/7/4 317/7/4 327/7/4
f 317/4/4 318/4/4 328/4/4
f 327/7/4 317/7/4 328/7/4
f 318/7/4 319/7/4 329/7/4
f 328/4/4 318/4/4 329/4/4
f 329/7/4 319/7/4 330/7/4
f 324/2/4 325/2/4 334/2/4
f 325/3/4 326/3/4 335/3/4
f 334/2/4 325/2/4 335/2/4
f 326/5/4 327/5/4 336/5/4
f 335/3/4 326/3/4 336/3/4
f 327/6/4 328/6/4 337/6/4
f 336/5/4 327/5/4 337/5/4
f 328/7/4 329/7/4 338/7/4
f 337/6/4 328/6/4 338/6/4
f 329/6/4 330/6/4 339/6/4
f 338/7/4 329/7/4 339/7/4
f 330/5/4 331/5/4 340/5/4
f 339/6/4 330/6/4 340/6/4
f 331/3/4 332/3/4 341/3/4
f 340/5/4 331/5/4 341/5/4
f 341/3/4 332/3/4 342/3/4
f 332/2/4 333/2/4 343/2/4
f 342/3/4 332/3/4 343/3/4
f 343/2/4 333/2/4 344/2/4
f 335/2/4 336/2/4 345/2/4
f 336/3/4 337/3/4 346/3/4
f 345/2/4 336/2/4 346/2/4
f 337/1/4 338/1/4 347/1/4
f 346/3/4 337/3/4 347/3/4
f 338/6/4 339/6/4 348/6/4
f 347/1/4 338/1/4 348/1/4
f 339/1/4 340/1/4 349/1/4
f 348/6/4 339/6/4 349/6/4
f 341/3/4 342/3/4 350/3/4
f 349/1/4 340/1/4 350/1/4
f 340/3/4 341/3/4 350/3/4
f 350/3/4 342/3/4 351/3/4
f 342/2/4 343/2/4 352/2/4
f 351/3/4 342/3/4 352/3/4
f 352/2/4 343/2/4 353/2/4
f 346/2/4 347/2/4 354/2/4
f 347/3/4 348/3/4 355/3/4
f 354/2/4 347/2/4 355/2/4
f 348/1/4 349/1/4 356/1/4
f 355/3/4 348/3/4 356/3/4
f 350/3/4 351/3/4 357/3/4
f 356/1/4 349/1/4 357/1/4
f 349/3/4 350/3/4 357/3/4
f 357/3/4 351/3/4 358/3/4
f 351/2/4 352/2/4 359/2/4
f 358/3/4 351/3/4 359/3/4
f 359/2/4 352/2/4 360/2/4
f 355/2/4 356/2/4 361/2/4
f 357/3/4 358/3/4 362/3/4
f 361/2/4 356/2/4 362/2/4
f 356/3/4 357/3/4 362/3/4
f 358/2/4 359/2/4 363/2/4
f 362/3/4 358/3/4 363/3/4
f 363/2/4 359/2/4 364/2/4
f 367/8/5 366/8/5 365/8/5
f 368/8/5 366/8/5 367/8/5
f 373/1/5 370/1/5 369/1/5
f 374/1/5 370/1/5 373/1/5
f 375/1/5 372/1/5 371/1/5
f 376/1/5 372/1/5 375/1/5
f 381/2/5 378/2/5 377/2/5
f 382/2/5 378/2/5 381/2/5
f 383/2/5 380/2/5 379/2/5
f 384/2/5 380/2/5 383/2/5
f 389/2/5 386/2/5 385/2/5
f 390/2/5 386/2/5 389/2/5
f 391/2/5 388/2/5 387/2/5
f 392/2/5 388/2/5 391/2/5
f 397/2/5 394/2/5 393/2/5
f 398/2/5 394/2/5 397/2/5
f 399/2/5 396/2/5 395/2/5
f 400/2/5 396/2/5 399/2/5
f 409/2/5 402/2/5 401/2/5
f 410/2/5 402/2/5 409/2/5
f 411/7/5 404/7/5 403/7/5
f 412/7/5 404/7/5 411/7/5
f 413/7/5 406/7/5 405/7/5
f 414/7/5 406/7/5 413/7/5
f 415/2/5 408/2/5 407/2/5
f 416/2/5 408/2/5 415/2/5
f 417/1/6 418/1/6 421/1/6
f 421/1/6 418/1/6 422/1/6
f 419/1/6 420/1/6 423/1/6
f 423/1/6 420/1/6 424/1/6
f 425/7/6 426/7/6 429/7/6
f 429/7/6 426/7/6 430/7/6
f 427/7/6 428/7/6 431/7/6
f 431/7/6 428/7/6 432/7/6
f 433/2/6 434/2/6 437/2/6
f 437/2/6 434/2/6 438/2/6
f 435/2/6 436/2/6 439/2/6
f 439/2/6 436/2/6 440/2/6
f 441/2/6 442/2/6 447/2/6
f 447/2/6 442/2/6 448/2/6
f 443/1/6 444/1/6 449/1/6
f 449/1/6 444/1/6 450/1/6
f 445/2/6 446/2/6 451/2/6
f 451/2/6 446/2/6 452/2/6
f 453/2/6 454/2/6 457/2/6
f 457/2/6 454/2/6 458/2/6
f 455/2/6 456/2/6 459/2/6
f 459/2/6 456/2/6 460/2/6
f 461/2/6 462/2/6 465/2/6
f 465/2/6 462/2/6 466/2/6
f 463/2/6 464/2/6 467/2/6
f 467/2/6 464/2/6 468/2/6
